<svg width="25" height="12" viewBox="0 0 25 12" fill="none" xmlns="http://www.w3.org/2000/svg">
<path opacity="0.35" d="M0.5 4.60001C0.5 3.84502 0.500389 3.30885 0.534671 2.88926C0.568475 2.47551 0.632728 2.21935 0.736153 2.01636C0.943878 1.60868 1.27534 1.27722 1.68302 1.0695C1.886 0.966072 2.14217 0.901819 2.55592 0.868014C2.97551 0.833732 3.51168 0.833344 4.26667 0.833344H17.7333C18.4883 0.833344 19.0245 0.833732 19.4441 0.868014C19.8578 0.901819 20.114 0.966072 20.317 1.0695C20.7247 1.27722 21.0561 1.60868 21.2638 2.01636C21.3673 2.21935 21.4315 2.47551 21.4653 2.88926C21.4996 3.30885 21.5 3.84502 21.5 4.60001V7.40001C21.5 8.155 21.4996 8.69117 21.4653 9.11076C21.4315 9.52451 21.3673 9.78067 21.2638 9.98366C21.0561 10.3913 20.7247 10.7228 20.317 10.9305C20.114 11.0339 19.8578 11.0982 19.4441 11.132C19.0245 11.1663 18.4883 11.1667 17.7333 11.1667H4.26667C3.51168 11.1667 2.97551 11.1663 2.55592 11.132C2.14217 11.0982 1.886 11.0339 1.68302 10.9305C1.27534 10.7228 0.943878 10.3913 0.736153 9.98366C0.632728 9.78067 0.568475 9.52451 0.534671 9.11075C0.500389 8.69117 0.5 8.155 0.5 7.40001V4.60001Z" stroke="black"/>
<path opacity="0.4" d="M23 4V8C23.8047 7.66122 24.328 6.87313 24.328 6C24.328 5.12687 23.8047 4.33878 23 4Z" fill="black"/>
<path d="M2 4.46668C2 3.71994 2 3.34657 2.14532 3.06136C2.27316 2.81047 2.47713 2.6065 2.72801 2.47867C3.01323 2.33334 3.3866 2.33334 4.13333 2.33334H17.8667C18.6134 2.33334 18.9868 2.33334 19.272 2.47867C19.5229 2.6065 19.7268 2.81047 19.8547 3.06136C20 3.34657 20 3.71994 20 4.46668V7.53334C20 8.28008 20 8.65345 19.8547 8.93866C19.7268 9.18955 19.5229 9.39352 19.272 9.52135C18.9868 9.66668 18.6134 9.66668 17.8667 9.66668H4.13333C3.3866 9.66668 3.01323 9.66668 2.72801 9.52135C2.47713 9.39352 2.27316 9.18955 2.14532 8.93866C2 8.65345 2 8.28008 2 7.53334V4.46668Z" fill="black"/>
</svg>
