<svg width="23" height="26" viewBox="0 0 23 26" fill="none" xmlns="http://www.w3.org/2000/svg">
<path fill-rule="evenodd" clip-rule="evenodd" d="M9.45711 1.04289C9.06658 0.652369 8.43342 0.652369 8.04289 1.04289C7.65237 1.43342 7.65237 2.06658 8.04289 2.45711L9.33579 3.75H7.75C3.88401 3.75 0.75 6.88401 0.75 10.75V18.75C0.75 22.616 3.88401 25.75 7.75 25.75H15.75C19.616 25.75 22.75 22.616 22.75 18.75V10.75C22.75 6.88401 19.616 3.75 15.75 3.75H14.1642L15.4571 2.45711C15.8476 2.06658 15.8476 1.43342 15.4571 1.04289C15.0666 0.652369 14.4334 0.652369 14.0429 1.04289L11.75 3.33579L9.45711 1.04289ZM2.75 10.75C2.75 7.98858 4.98858 5.75 7.75 5.75H11.75H15.75C18.5114 5.75 20.75 7.98858 20.75 10.75V18.75C20.75 21.5114 18.5114 23.75 15.75 23.75H7.75C4.98858 23.75 2.75 21.5114 2.75 18.75V10.75ZM12.75 13.75C12.75 13.4286 12.5955 13.1267 12.3347 12.9388C12.0739 12.7508 11.7387 12.6997 11.4338 12.8013L5.43377 14.8013C4.90983 14.976 4.62667 15.5423 4.80132 16.0662C4.97596 16.5902 5.54228 16.8733 6.06623 16.6987L10.75 15.1374V16.75C10.75 17.0714 10.9045 17.3733 11.1653 17.5612C11.4261 17.7492 11.7613 17.8003 12.0662 17.6987L18.0662 15.6987C18.5902 15.524 18.8733 14.9577 18.6987 14.4338C18.524 13.9098 17.9577 13.6267 17.4338 13.8013L12.75 15.3626V13.75Z" fill="#9A9A9A"/>
</svg>
