<svg width="20" height="23" viewBox="0 0 20 23" fill="none" xmlns="http://www.w3.org/2000/svg">
<path fill-rule="evenodd" clip-rule="evenodd" d="M7.60439 5.4H12.4273V5.01311C12.4273 3.91345 11.4295 2.88 10.0158 2.88C8.6022 2.88 7.60439 3.91345 7.60439 5.01311V5.4ZM14.4273 5.4V5.01311C14.4273 2.65204 12.3704 0.880005 10.0158 0.880005C7.66128 0.880005 5.60439 2.65204 5.60439 5.01311V5.4H3.79551C2.02356 5.4 0.562327 6.86843 0.471773 8.74011L0.00561354 18.3751C-0.116071 20.8902 1.77921 23 4.16028 23H15.8398C18.2209 23 20.1162 20.8902 19.9945 18.3751L19.5284 8.74012C19.4378 6.86844 17.9766 5.4 16.2046 5.4H14.4273ZM16.2046 7.4H3.79551C3.18726 7.4 2.51323 7.93151 2.46944 8.83676L2.00328 18.4718C1.93125 19.9605 3.03352 21 4.16028 21H15.8398C16.9666 21 18.0689 19.9605 17.9969 18.4718L17.5307 8.83677C17.4869 7.93151 16.8129 7.4 16.2046 7.4ZM6.60439 8.8C7.15667 8.8 7.60439 9.24772 7.60439 9.8C7.60439 10.1965 7.82307 10.7197 8.28752 11.1647C8.74043 11.5987 9.3493 11.88 10 11.88C10.6522 11.88 11.2709 11.5974 11.733 11.1603C12.207 10.7119 12.4273 10.1896 12.4273 9.8C12.4273 9.24772 12.875 8.8 13.4273 8.8C13.9796 8.8 14.4273 9.24772 14.4273 9.8C14.4273 10.8685 13.876 11.8861 13.1074 12.6132C12.3268 13.3516 11.2319 13.88 10 13.88C8.76666 13.88 7.67771 13.3503 6.90383 12.6088C6.14148 11.8783 5.60439 10.8615 5.60439 9.8C5.60439 9.24772 6.0521 8.8 6.60439 8.8Z" fill="black"/>
</svg>
