<svg width="22" height="22" viewBox="0 0 22 22" fill="none" xmlns="http://www.w3.org/2000/svg">
<path fill-rule="evenodd" clip-rule="evenodd" d="M11.2128 0.781921L11.25 0.781922L11.2872 0.781921C12.8834 0.781917 14.1323 0.781913 15.137 0.860144C16.159 0.93972 17.0013 1.10413 17.7673 1.47303C19.1917 2.15899 20.341 3.30828 21.027 4.73269C21.3959 5.49873 21.5603 6.34099 21.6399 7.363C21.7181 8.3677 21.7181 9.61653 21.7181 11.2126V11.2127V11.2128V11.25V11.2873V11.2873V11.2874C21.7181 12.8835 21.7181 14.1323 21.6399 15.137C21.5603 16.159 21.3959 17.0013 21.027 17.7673C20.341 19.1917 19.1917 20.341 17.7673 21.027C17.0013 21.3959 16.159 21.5603 15.137 21.6399C14.1323 21.7181 12.8835 21.7181 11.2874 21.7181H11.2873H11.2873H11.25H11.2127H11.2127H11.2126C9.61652 21.7181 8.3677 21.7181 7.36299 21.6399C6.34099 21.5603 5.49873 21.3959 4.73268 21.027C3.30827 20.341 2.15899 19.1917 1.47303 17.7673C1.10412 17.0013 0.939713 16.159 0.860138 15.137C0.781907 14.1323 0.78191 12.8835 0.781914 11.2873V11.2873V11.25V11.2128V11.2127C0.78191 9.61656 0.781907 8.36772 0.860138 7.363C0.939713 6.34099 1.10412 5.49873 1.47303 4.73269C2.15899 3.30828 3.30827 2.15899 4.73268 1.47303C5.49873 1.10413 6.34099 0.93972 7.36299 0.860144C8.36772 0.781913 9.61658 0.781917 11.2128 0.781921ZM7.49843 2.59956C6.5788 2.67116 5.97935 2.80912 5.48967 3.04494C4.42136 3.55941 3.5594 4.42137 3.04493 5.48968C2.80911 5.97936 2.67116 6.57881 2.59955 7.49843C2.52721 8.42753 2.5266 9.60862 2.5266 11.25C2.5266 12.8914 2.52721 14.0725 2.59955 15.0016C2.67116 15.9212 2.80911 16.5207 3.04493 17.0103C3.5594 18.0786 4.42136 18.9406 5.48967 19.4551C5.97935 19.6909 6.5788 19.8288 7.49843 19.9005C8.42752 19.9728 9.60861 19.9734 11.25 19.9734C12.8914 19.9734 14.0725 19.9728 15.0016 19.9005C15.9212 19.8288 16.5206 19.6909 17.0103 19.4551C18.0786 18.9406 18.9406 18.0786 19.4551 17.0103C19.6909 16.5207 19.8288 15.9212 19.9004 15.0016C19.9728 14.0725 19.9734 12.8914 19.9734 11.25C19.9734 9.60862 19.9728 8.42753 19.9004 7.49843C19.8288 6.57881 19.6909 5.97936 19.4551 5.48968C18.9406 4.42137 18.0786 3.55941 17.0103 3.04494C16.5206 2.80912 15.9212 2.67116 15.0016 2.59956C14.0725 2.52722 12.8914 2.5266 11.25 2.5266C9.60861 2.5266 8.42752 2.52722 7.49843 2.59956ZM11.25 6.01596C11.7318 6.01596 12.1223 6.40652 12.1223 6.8883V10.3777H15.6117C16.0935 10.3777 16.484 10.7682 16.484 11.25C16.484 11.7318 16.0935 12.1223 15.6117 12.1223H12.1223V15.6117C12.1223 16.0935 11.7318 16.484 11.25 16.484C10.7682 16.484 10.3777 16.0935 10.3777 15.6117V12.1223H6.8883C6.40652 12.1223 6.01596 11.7318 6.01596 11.25C6.01596 10.7682 6.40652 10.3777 6.8883 10.3777H10.3777V6.8883C10.3777 6.40652 10.7682 6.01596 11.25 6.01596Z" fill="black"/>
</svg>
