<svg width="22" height="23" viewBox="0 0 22 23" fill="none" xmlns="http://www.w3.org/2000/svg">
<path fill-rule="evenodd" clip-rule="evenodd" d="M8.27262 4.32182H9.05059L9.62407 3.79612L11 2.53485L12.3759 3.79612L12.9494 4.32182H13.7274H19C19.5523 4.32182 20 4.76953 20 5.32182V19.8217C20 20.374 19.5523 20.8217 19 20.8217H18.811C18.1449 18.2338 15.7958 16.3217 13 16.3217H9C6.20423 16.3217 3.85507 18.2338 3.18902 20.8217H3C2.44772 20.8217 2 20.374 2 19.8217V5.32182C2 4.76953 2.44772 4.32182 3 4.32182H8.27262ZM5.29074 20.8217H16.7093C16.1159 19.3558 14.6787 18.3217 13 18.3217H9C7.3213 18.3217 5.88412 19.3558 5.29074 20.8217ZM8.27262 2.32182H3C1.34315 2.32182 0 3.66496 0 5.32182V19.8217C0 21.4785 1.34315 22.8217 3 22.8217H19C20.6569 22.8217 22 21.4785 22 19.8217V5.32182C22 3.66496 20.6569 2.32182 19 2.32182H13.7274L11.3379 0.131423C11.1467 -0.0438077 10.8533 -0.0438076 10.6621 0.131423L8.27262 2.32182ZM16 10.3217C16 13.0831 13.7614 15.3217 11 15.3217C8.23858 15.3217 6 13.0831 6 10.3217C6 7.56023 8.23858 5.32166 11 5.32166C13.7614 5.32166 16 7.56023 16 10.3217ZM14 10.3217C14 11.9785 12.6569 13.3217 11 13.3217C9.34315 13.3217 8 11.9785 8 10.3217C8 8.6648 9.34315 7.32166 11 7.32166C12.6569 7.32166 14 8.6648 14 10.3217Z" fill="#9A9A9A"/>
</svg>
