<svg width="76" height="18" viewBox="0 0 76 18" fill="none" xmlns="http://www.w3.org/2000/svg">
<path d="M14.6445 3.78516H9.41797V18H5.90234V3.78516H0.746094V0.9375H14.6445V3.78516ZM22.9766 11.7539H20.1758V18H16.6602V0.9375H23C25.0156 0.9375 26.5703 1.38672 27.6641 2.28516C28.7578 3.18359 29.3047 4.45312 29.3047 6.09375C29.3047 7.25781 29.0508 8.23047 28.543 9.01172C28.043 9.78516 27.2812 10.4023 26.2578 10.8633L29.9492 17.8359V18H26.1758L22.9766 11.7539ZM20.1758 8.90625H23.0117C23.8945 8.90625 24.5781 8.68359 25.0625 8.23828C25.5469 7.78516 25.7891 7.16406 25.7891 6.375C25.7891 5.57031 25.5586 4.9375 25.0977 4.47656C24.6445 4.01562 23.9453 3.78516 23 3.78516H20.1758V8.90625ZM41.6211 14.4844H35.457L34.2852 18H30.5469L36.8984 0.9375H40.1562L46.543 18H42.8047L41.6211 14.4844ZM36.4062 11.6367H40.6719L38.5273 5.25L36.4062 11.6367ZM48.1367 18V0.9375H53.3867C54.8867 0.9375 56.2266 1.27734 57.4062 1.95703C58.5938 2.62891 59.5195 3.58984 60.1836 4.83984C60.8477 6.08203 61.1797 7.49609 61.1797 9.08203V9.86719C61.1797 11.4531 60.8516 12.8633 60.1953 14.0977C59.5469 15.332 58.6289 16.2891 57.4414 16.9688C56.2539 17.6484 54.9141 17.9922 53.4219 18H48.1367ZM51.6523 3.78516V15.1758H53.3516C54.7266 15.1758 55.7773 14.7266 56.5039 13.8281C57.2305 12.9297 57.6016 11.6445 57.6172 9.97266V9.07031C57.6172 7.33594 57.2578 6.02344 56.5391 5.13281C55.8203 4.23438 54.7695 3.78516 53.3867 3.78516H51.6523ZM74.0117 10.6055H67.2617V15.1758H75.1836V18H63.7461V0.9375H75.1602V3.78516H67.2617V7.85156H74.0117V10.6055Z" fill="black"/>
</svg>
